<?xml version="1.0" encoding="UTF-8"?><svg id="a" xmlns="http://www.w3.org/2000/svg" viewBox="0 0 194.81 35.79"><defs><style>.b{fill:#fff;}</style></defs><path class="b" d="M56.07,1.23V35.11h1.5V1.23h-1.5Z"/><path class="b" d="M169.09,10.02c.13,.36,.38,.66,.71,.85,.42,.23,.9,.33,1.38,.31,.45,0,.9-.07,1.33-.22,.43-.17,.85-.39,1.23-.65,.35-.22,.66-.48,.94-.78,.33-.44,.58-.93,.74-1.46,.21-.62,.32-1.26,.32-1.91,0-.31-.04-.63-.12-.93-.08-.27-.21-.52-.39-.73-.22-.23-.49-.4-.79-.49-.37-.13-.76-.19-1.15-.19-.49,0-.97,.1-1.42,.29-.44,.19-.85,.43-1.23,.73-.28,.21-.54,.45-.78,.71-.3,.43-.53,.9-.66,1.41-.19,.61-.3,1.25-.3,1.89,0,.4,.06,.8,.2,1.18h-.01Zm1.86-3.48c.12-.6,.37-1.17,.74-1.66,.26-.28,.62-.44,1-.44,.35-.01,.7,.13,.93,.4,.27,.37,.4,.83,.36,1.29,0,.75-.11,1.49-.31,2.21-.11,.43-.26,.85-.47,1.24-.13,.26-.32,.48-.56,.65-.21,.14-.47,.21-.72,.2-.38,.03-.74-.11-1-.39-.26-.38-.38-.83-.34-1.29,.01-.75,.12-1.5,.33-2.23l.04,.02Zm6.73-1.72h1l-1.06,5.47c-.16,1.01-.38,2.02-.67,3-.06,.19-.16,.36-.31,.49-.11,.09-.25,.14-.39,.14-.15,0-.29-.05-.4-.15-.15-.14-.26-.31-.33-.5h-.23c-.05,.26-.11,.51-.18,.73s-.17,.51-.3,.88c.15,.07,.31,.11,.48,.13,.25,0,.5-.07,.72-.2,.54-.3,1.01-.7,1.4-1.18,.47-.55,.85-1.17,1.11-1.85,.4-1.12,.73-2.26,1-3.42l.77-3.54h1.87c.06-.26,.13-.51,.23-.76l-.07-.12c-.24,.04-.47,.06-.71,.07-.53,.03-.86,.03-1,0h-.12c.11-.66,.25-1.31,.43-1.95,.05-.19,.11-.37,.2-.54,.06-.12,.16-.21,.27-.28,.11-.06,.23-.1,.35-.1,.19,.01,.38,.08,.53,.19,.24,.18,.44,.4,.6,.65h.22c.09-.63,.23-1.26,.41-1.87-.19-.08-.39-.12-.6-.12-.23,0-.47,.03-.69,.11-.35,.2-.69,.42-1,.67-.5,.36-.97,.74-1.42,1.16-.24,.22-.45,.47-.61,.75-.12,.28-.21,.56-.26,.86,0,.19-.07,.31-.1,.39-.26,.11-.52,.21-.79,.28-.32,.09-.56,.17-.72,.23l-.07,.37h.44ZM76.07,21.32h-1.33c.01,.57-.04,1.14-.17,1.7-.03,.16-.14,.29-.29,.35-.81,.16-1.64,.22-2.47,.18-.45,0-1.32-.04-2.61-.11v-2.08c0-2.62,.06-4.43,.17-5.43l1.59-.07h1.43c.78,0,1.55,.05,2.32,.17,.44,.05,.86,.17,1.26,.35,.06,.03,.11,.08,.14,.15,.06,.26,.09,.53,.09,.8,.06,.81,.09,1.34,.09,1.58h1.23c0-.67,.05-1.44,.14-2.33s.19-1.62,.29-2.2l-.14-.21c-.96-.1-1.93-.15-2.9-.15l-7.28,.14-5.34-.14v1.3c.6,.02,1.2,.08,1.79,.17,.15,.02,.3,.08,.43,.16,.07,.07,.12,.15,.14,.25,.12,.54,.17,1.1,.17,1.65,.09,2.67,.14,4.08,.14,4.24v6.23c0,.53-.03,1.41-.08,2.64-.05,1.23-.09,1.96-.12,2.19-.01,.28-.08,.55-.21,.79-.06,.08-.14,.14-.23,.17-.67,.14-1.35,.21-2.03,.21v1.25c1.86-.07,3.22-.11,4.08-.11l5.92,.08v-1.22c-.8-.03-1.59-.11-2.38-.25-.15-.04-.29-.13-.38-.26-.17-.54-.25-1.1-.24-1.67-.06-.96-.09-2.63-.09-5v-1.71h1.21c1.18-.03,2.36,.04,3.53,.2,.21,.02,.41,.12,.54,.29,.21,.74,.3,1.51,.26,2.28h1.33v-6.58Zm8.42,13.78c.67,0,1.83,.02,3.48,.06l3.56,.08c1.29,0,2.25-.03,2.86-.08,.3-.02,.6-.07,.9-.14,0-.19,.05-.77,.14-1.72l.38-3.06v-.5h-1.23c-.19,.97-.39,1.85-.59,2.62-.04,.2-.13,.4-.26,.56-.23,.12-.48,.18-.74,.2-1.32,.19-2.66,.28-4,.27-.51,0-1.46-.04-2.85-.11v-11.24c0-1.69,.02-3.1,.07-4.21-.02-.63,0-1.26,.08-1.88,.04-.13,.13-.23,.24-.3,.68-.2,1.38-.29,2.09-.27v-1.36c-1.65,.07-3.39,.11-5.22,.11-1.65,0-3.11-.04-4.39-.11v1.33c.78-.03,1.57,.07,2.32,.3,.11,.06,.19,.15,.23,.27,.15,1.08,.21,2.17,.19,3.26v5.91c0,2.17-.02,4.03-.06,5.58s-.09,2.45-.14,2.7c0,.06-.03,.12-.07,.17-.12,.12-.26,.23-.41,.3-.35,.22-.72,.42-1.1,.59v.78c2-.09,3.5-.14,4.51-.14v.03Zm13.07-4.2c.89,1.57,2.23,2.84,3.84,3.64,1.82,.87,3.83,1.29,5.85,1.24,1.91,.04,3.82-.3,5.6-1,1.19-.51,2.28-1.25,3.19-2.17,.92-.92,1.65-2.02,2.13-3.23,.67-1.68,1.01-3.47,1-5.28,0-1.04-.12-2.07-.37-3.08-.21-.9-.55-1.76-1-2.56-1.12-1.85-2.85-3.27-4.89-4-1.61-.53-3.3-.79-5-.77-1.74-.02-3.46,.25-5.11,.8-2.63,.94-4.73,2.95-5.79,5.53-.59,1.54-.87,3.18-.84,4.83-.08,2.09,.4,4.16,1.39,6v.05Zm4-11.39c.39-1.25,1.19-2.33,2.26-3.07,1.12-.7,2.43-1.05,3.76-1,1.07-.05,2.14,.18,3.11,.65,.8,.47,1.49,1.12,2,1.89,.61,.91,1.06,1.93,1.32,3,.32,1.27,.47,2.57,.46,3.88,.05,1.79-.24,3.57-.85,5.26-.42,1.24-1.24,2.31-2.32,3.04-1.03,.61-2.21,.93-3.41,.91-1.26,.02-2.5-.33-3.57-1-1.14-.81-2.01-1.95-2.48-3.27-.71-1.87-1.05-3.85-1-5.85-.02-1.53,.22-3.04,.7-4.49l.02,.05Zm19.74-3.89c.1,.06,.17,.15,.22,.26,.15,.75,.21,1.51,.18,2.27l.08,3.2v5.62l-.12,4.42c-.01,.6-.06,1.2-.15,1.79-.01,.15-.06,.29-.13,.42-.07,.08-.16,.13-.26,.15-.66,.12-1.33,.17-2,.17v1.33c1.33-.07,2.79-.11,4.37-.11,1.77,0,3.51,.04,5.23,.11v-1.34c-.59,0-1.18-.03-1.76-.09-.16-.02-.31-.08-.44-.16-.08-.06-.15-.13-.2-.22-.11-.36-.17-.73-.17-1.1,0-.28-.03-1.46-.09-3.54v-4.81c0-.96,.03-2.87,.09-5.72,0-1.27,.03-2.09,.09-2.46,.48-.08,.96-.12,1.44-.12,.76-.04,1.53,.04,2.27,.23,.67,.25,1.24,.7,1.65,1.29,.47,.68,.7,1.5,.67,2.32,.01,.87-.21,1.73-.64,2.49-.35,.66-.89,1.2-1.56,1.54-.87,.33-1.81,.45-2.74,.37l-.17,.5c.36,.28,.68,.62,.94,1,.67,.88,1.45,2.09,2.36,3.62l3.24,5.34c.16,.27,.28,.56,.36,.86,.8-.04,1.6-.06,2.41-.06,.67,0,1.79,.02,3.37,.06v-1.34c-.34,.02-.68-.02-1-.12-.19-.09-.36-.22-.5-.37-.17-.18-.64-.77-1.39-1.77l-1-1.5-2.35-3.5-.17-.29c-.06-.1-.24-.38-.57-.86s-.61-.93-.86-1.38c1.37-.44,2.58-1.27,3.5-2.38,.74-.95,1.14-2.12,1.14-3.33,.03-.94-.26-1.87-.83-2.62-.5-.68-1.2-1.18-2-1.42-1.17-.27-2.36-.38-3.56-.34-.82,0-1.85,.03-3.1,.09-.76,.05-1.67,.07-2.72,.07h-2.88l-2.42-.07v1.2c.75,0,1.5,.1,2.22,.3h-.05Zm24.15-1.46c-1.65,0-3.11-.04-4.38-.11v1.33c.64,0,1.28,.05,1.92,.13,.13,.02,.26,.08,.36,.17,.07,.09,.13,.19,.15,.3,.11,.8,.17,1.6,.18,2.41v10.21c0,1.03-.04,2.15-.12,3.36-.05,.83-.09,1.3-.12,1.42-.02,.09-.07,.18-.14,.24-.13,.09-.27,.15-.43,.17-.16,0-.77,.04-1.82,.11v1.33c1.45-.08,2.9-.11,4.35-.11,1.87,0,3.63,.04,5.27,.11v-1.32c-.6,0-1.21-.03-1.81-.1-.16-.03-.32-.09-.46-.18-.1-.08-.18-.2-.21-.33-.13-.66-.18-1.33-.15-2v-8.9c0-.19,.02-1.53,.06-4v-1.49c0-.34,.05-.68,.15-1,.03-.1,.09-.19,.17-.25,.12-.08,.26-.14,.41-.17,.61-.07,1.22-.11,1.83-.11v-1.36c-1.65,.07-3.39,.11-5.24,.11l.03,.03Zm11.71,21l4.49,.11c1.76,.04,3.52-.19,5.22-.67,1.46-.47,2.82-1.21,4-2.2,1.24-1.03,2.24-2.33,2.91-3.8,.73-1.62,1.09-3.38,1.06-5.16,.02-1.42-.22-2.84-.71-4.18-.29-.77-.71-1.49-1.25-2.12-.57-.67-1.24-1.25-2-1.7-.87-.49-1.82-.83-2.81-1-1.42-.25-2.85-.36-4.29-.33-.78,0-1.81,.02-3.1,.05-1.79,.06-3,.09-3.65,.09l-5.45-.23v1.22c1.09,.14,1.73,.23,1.9,.27,.14,.02,.27,.09,.38,.18,.06,.06,.1,.13,.12,.21,.15,.9,.21,1.82,.2,2.73,.05,2.57,.08,4.53,.08,5.86v2.53c0,3.04-.06,5.24-.17,6.59-.32,.24-.65,.47-1,.67l-.42,.24v.73l4.58-.11-.09,.02Zm1.31-7.71v-3.5c0-3.96,.05-6.65,.16-8.08,.85-.13,1.71-.19,2.57-.2,1.56-.07,3.13,.12,4.63,.54,.99,.34,1.86,.95,2.53,1.76,.68,.83,1.17,1.79,1.44,2.82,.29,1.09,.44,2.21,.44,3.34,0,1.19-.14,2.38-.44,3.53-.25,1-.67,1.95-1.23,2.82-.44,.69-1,1.3-1.66,1.79-.61,.42-1.29,.73-2,.92-1.17,.3-2.37,.44-3.57,.42-.9,0-1.8-.09-2.69-.24-.11-.96-.16-2.94-.16-5.94l-.02,.02Zm17.17,7.71l3.49,.11v-1.25c-.73,.03-1.46-.06-2.16-.27-.17-.11-.26-.31-.24-.51,.15-.89,.4-1.76,.75-2.59l.66-1.81h7.81l1.35,3.28c.18,.39,.3,.81,.35,1.24,.01,.18-.08,.34-.23,.43-.69,.16-1.41,.24-2.12,.23v1.25l5.31-.11,4.21,.11v-1.25l-.67-.07c-.3,0-.59-.05-.88-.11-.11-.04-.22-.1-.31-.18-.12-.11-.22-.24-.29-.39l-.61-1.39-.94-2.07-6.72-15.85h-2.16l-1.33,3.44-3.95,9.75c-.5,1.24-1,2.48-1.51,3.71-.33,.77-.66,1.54-1,2.31-.09,.17-.2,.32-.34,.45-.12,.1-.25,.17-.4,.21-.48,.08-.97,.14-1.46,.16v1.25l3.47-.11-.08,.03Zm6.36-15.94l3.24,7.8h-6.35l3.12-7.83v.03ZM63.08,1.83c.09,.04,.16,.11,.21,.19,.05,.13,.08,.27,.08,.41v5.66c.08,.58,.38,1.11,.84,1.48,.3,.23,.64,.41,1,.51,.58,.18,1.19,.26,1.8,.26,.49,0,.98-.05,1.45-.18,.39-.11,.76-.29,1.09-.53,.3-.21,.55-.49,.74-.8,.17-.31,.28-.65,.33-1,.05-.39,.08-.79,.08-1.18V3.32c0-.44,.04-.87,.11-1.3,.02-.07,.06-.14,.12-.19,.24-.09,.49-.12,.74-.1v-.51l-1.38,.04h-1.55v.48c.31-.01,.62,.03,.91,.13,.07,.03,.12,.08,.15,.15,.07,.33,.1,.66,.09,1v3.3c.04,.62-.03,1.25-.22,1.84-.16,.33-.42,.61-.75,.78-.44,.22-.92,.32-1.41,.3-.42,.01-.83-.06-1.22-.22-.3-.12-.55-.33-.74-.59-.18-.3-.29-.65-.3-1V3.82c-.04-.58-.02-1.16,.04-1.74,0-.09,.06-.17,.13-.22,.28-.11,.57-.15,.87-.12v-.52h-1.12l-.88,.04-2-.04v.52l.83,.09h-.04Zm11.29,8.27h3.05v-.54h-.13c-.2,0-.4-.02-.6-.05-.07,0-.15-.03-.21-.07-.04-.03-.07-.07-.09-.12-.05-.3-.08-.6-.08-.9V3.22c2.51,3.06,4.44,5.35,5.81,6.88l1.09,.16,.08-.05c-.06-.6-.09-2.31-.09-5.12v-1.67c-.02-.49,0-.98,.09-1.46,0-.04,.03-.08,.07-.1,.3-.09,.62-.13,.93-.11v-.53h-3v.53c.34-.03,.68,.02,1,.13,.07,.09,.11,.2,.11,.31,.05,.4,.08,1.73,.08,4v1.47c-.59-.61-1.33-1.44-2.22-2.51-1.1-1.29-2.16-2.6-3.2-3.93h-2.69v.53c.27,0,.54,.04,.81,.08,.07,.01,.14,.05,.2,.1,.05,.06,.08,.13,.09,.21,.02,.2,.02,.4,0,.6V7.96c-.03,.62-.06,1.01-.09,1.17,0,.09-.04,.17-.08,.24-.03,.04-.07,.06-.12,.08-.28,.04-.57,.06-.86,.07v.54l.05,.04ZM89,1.26h-1.83v.52c.27,0,.54,.02,.8,.05,.06,0,.11,.03,.15,.07,.03,.04,.05,.08,.06,.13,.06,.33,.09,.66,.11,.99V7.32c0,.43-.02,.9-.06,1.41v.6s-.03,.07-.06,.1c-.05,.04-.11,.06-.18,.07h-.76v.56h4.03v-.52c-.25,.02-.51,.02-.76,0-.08-.02-.15-.06-.21-.12-.04-.04-.08-.08-.09-.14-.06-.28-.08-.57-.06-.85V2.42c0-.13,.02-.27,.05-.4,.02-.05,.05-.09,.1-.12,.05-.04,.11-.06,.17-.07,.26-.02,.51-.02,.77,0v-.61h-2.2l-.03,.04Zm10.14,8.88c.26-.72,.75-1.95,1.48-3.7l.86-2,.45-1.05c.17-.51,.42-.99,.72-1.44,.23-.09,.47-.13,.72-.13v-.6h-2.98v.56h.93s.07,.05,.09,.08c.01,.05,.01,.11,0,.16,0,.05,0,.1,0,.15-.04,.17-.16,.51-.35,1-.15,.4-.3,.8-.45,1.2l-1.41,3.49-1.6-3.84v-.12l-.31-.61c-.19-.39-.33-.79-.42-1.21,0-.06,.01-.12,.05-.16,.05-.05,.12-.08,.19-.09,.25-.05,.51-.07,.77-.06v-.55h-4.13v.56c.27-.02,.54,.02,.79,.11,.16,.16,.29,.35,.37,.56,.16,.32,.59,1.32,1.3,3l.9,2.15,1,2.53h1.03Zm9.15-.11h3.08c.38,.02,.77,.02,1.15,0l.08-.08c.01-.69,.06-1.38,.14-2.07h-.45c-.05,.39-.13,.77-.24,1.15-.01,.04-.04,.08-.08,.11-.23,.08-.47,.13-.71,.13h-2.47v-3.39c.33-.02,.67-.02,1,0,.38,0,.76,.02,1.13,.07,.11,.01,.21,.07,.27,.16,.1,.29,.13,.6,.1,.91h.51v-2.78h-.51c0,.27-.03,.54-.09,.8-.01,.05-.05,.1-.09,.13-.13,.02-.27,.02-.4,0h-1.9v-1.32c0-.61,.03-1.22,.09-1.83h1.15c.41,0,.82,.02,1.23,.07,.17,0,.35,.04,.51,.1,.04,.03,.07,.08,.08,.13,.04,.31,.06,.61,.06,.92h.49l.06-.92,.12-.92v-.08l-.31-.09h-6.46v.54c.31,0,.62,.03,.92,.11,.04,.02,.08,.06,.1,.1,.07,.29,.1,.58,.09,.88V6.94c0,.33-.02,.86-.05,1.59,0,.4,0,.69-.06,.86-.19,.15-.4,.27-.62,.37v.34l2.08-.08ZM116.64,1.84s.07,.06,.09,.11c.07,.33,.1,.66,.08,1v3.67l-.05,1.85c0,.25-.02,.5-.06,.75,0,.06-.02,.12-.05,.18-.03,.03-.07,.05-.11,.06-.28,.05-.57,.07-.85,.07v.56h4.02v-.55c-.25,.01-.49,.01-.74,0-.06-.01-.13-.03-.18-.07-.03-.02-.06-.05-.08-.09-.05-.15-.07-.3-.07-.46V2.03c.2-.03,.4-.05,.6-.05,.34-.02,.67,.01,1,.1,.28,.11,.52,.29,.69,.54,.2,.29,.3,.65,.28,1,0,.35-.1,.7-.27,1-.14,.28-.37,.51-.65,.65-.37,.14-.76,.19-1.15,.16l-.07,.21c.15,.12,.28,.26,.39,.42,.27,.37,.61,.87,1,1.52l1.36,2.24c.07,.11,.11,.23,.15,.36h2.42v-.64c-.14,0-.27-.01-.4-.05-.08-.04-.15-.09-.21-.16-.07-.07-.27-.32-.58-.74l-.43-.63-1-1.47-.07-.12-.2-.35c-.13-.2-.26-.39-.36-.58,.57-.19,1.08-.53,1.46-1,.31-.4,.48-.89,.48-1.4,.01-.4-.11-.78-.35-1.1-.21-.28-.5-.49-.84-.59-.49-.11-.99-.16-1.49-.14h-4.65v.53c.31,0,.63,.05,.93,.13l-.04-.03Zm16.39,.63c.03-.27,.07-.54,.13-.81l-.05-.15c-.35-.17-.72-.28-1.1-.35-.43-.08-.86-.12-1.3-.12-.42,0-.85,.05-1.26,.14-.39,.09-.77,.25-1.1,.47-.34,.24-.61,.56-.79,.93-.2,.41-.3,.86-.3,1.31,0,.32,.06,.65,.17,.95,.11,.28,.28,.54,.5,.75,.25,.23,.55,.39,.88,.48,.24,.07,.74,.19,1.51,.35,.39,.07,.76,.2,1.12,.36,.2,.1,.36,.26,.47,.46,.11,.21,.16,.45,.15,.69,0,.3-.07,.59-.21,.85-.16,.27-.4,.47-.69,.59-.34,.15-.71,.22-1.08,.21-.44,0-.88-.1-1.28-.3-.33-.15-.62-.39-.83-.69-.05-.38-.07-.76-.07-1.14h-.51c.02,.74-.05,1.48-.2,2.2,.43,.21,.88,.38,1.34,.5,.46,.1,.92,.15,1.39,.15,.62,.02,1.24-.08,1.83-.3,.34-.14,.65-.33,.93-.57,.29-.24,.53-.53,.71-.85,.23-.44,.35-.93,.34-1.43,0-.28-.04-.56-.12-.83-.07-.22-.17-.43-.31-.62-.14-.17-.31-.32-.5-.43-.26-.14-.54-.25-.83-.32l-.85-.16-1-.19c-.26-.06-.5-.15-.73-.28-.16-.1-.29-.24-.38-.41-.1-.21-.15-.45-.14-.68,0-.39,.18-.75,.47-1,.37-.31,.85-.47,1.34-.44,.37,0,.75,.07,1.09,.22,.27,.1,.5,.27,.68,.49,.04,.33,.06,.67,.06,1h.53c0-.43,0-.78,.06-1l-.07-.03Zm5.64-1.23h-1.83v.54c.27,0,.53,.02,.8,.05,.06,0,.11,.03,.15,.07,.03,.04,.05,.08,.06,.13,.05,.33,.07,.67,.08,1V7.32c0,.43-.02,.9-.05,1.41v.6s-.03,.07-.06,.1c-.05,.04-.11,.06-.18,.07h-.76v.56h4.03v-.52c-.25,.02-.51,.02-.76,0-.07-.01-.13-.04-.19-.08-.05-.04-.08-.08-.09-.14-.06-.28-.08-.57-.06-.85V2.42c0-.14,.04-.27,.08-.4,.01-.04,.04-.07,.07-.1,.05-.03,.11-.06,.17-.07,.25-.02,.51-.02,.76,0v-.63h-2.2l-.02,.02Zm8.84,8.78c.57,0,1.26,.02,2.08,.05v-.49c-.31,.01-.61-.03-.91-.11-.09-.05-.16-.14-.19-.24-.07-.55-.09-1.1-.07-1.65V2.04h.91c.49,0,.9,.02,1.25,.05,.07-.02,.13-.02,.2,0,.05,.08,.08,.17,.08,.27,.05,.31,.07,.62,.08,.94h.52V1.91c.01-.23,.03-.45,.07-.68l-.06-.06h-8.02l-.06,.06c0,.21,.02,.41,.06,.6s.04,.68,0,1.47h.52c0-.34,.04-.67,.1-1,0-.08,.03-.16,.08-.22,.08-.03,.16-.05,.24-.05h2.12V7.57c.02,.55,0,1.1-.07,1.64-.03,.11-.09,.2-.19,.25-.3,.08-.6,.11-.91,.1v.52c.78-.03,1.47-.05,2.08-.05h.09Zm10.4-6.39c-.27-.54-.58-1.07-.92-1.58-.14-.23-.31-.44-.49-.63-.17-.16-.36-.3-.56-.41l-.7,.17-1.35,.27v.56c.19-.02,.37-.02,.56,0,.17,.12,.32,.25,.45,.41,.37,.43,.71,.89,1,1.38,.45,.71,.88,1.42,1.28,2.15,.12,.18,.2,.39,.24,.6v2.44c0,.13-.02,.26-.07,.38-.04,.05-.1,.09-.17,.1-.28,.04-.57,.06-.85,.06v.56h4.12v-.56c-.28,0-.56-.01-.84-.05-.07-.02-.14-.05-.19-.11-.06-.14-.09-.29-.1-.44-.02-.39-.02-.78,0-1.17v-1.09c-.01-.16-.01-.32,0-.48,.04-.17,.1-.33,.18-.48,.14-.27,.51-.87,1.1-1.8s1.16-1.74,1.69-2.42v-.28h-1c-.06,.12-.21,.39-.44,.79l-1.2,2.12-.8,1.29c-.1-.22-.4-.81-.89-1.76l-.05-.02Z"/><g><path class="b" d="M36.21,29.4v-8.67h7.99v-5.72h-7.99V6.91h8.77v3.14h5.79V1.24H27.59V6.91h2.18V29.4h-2.17v5.72h10.7v-5.72h-2.09Zm-11.63-7.09V6.91h2.14V1.24h-10.71V6.91h2.09v13.49c0,5.66-.65,8.37-4.71,8.37s-4.72-2.75-4.72-8.37V6.91h2.07V1.24H0V6.91H2.13v15.4c0,3.37,0,6.12,1.59,8.6,1.77,2.8,5,4.59,9.66,4.59,8.26,0,11.2-4.31,11.2-13.19ZM56.07,1.23V35.11h1.5V1.23h-1.5Z"/><path class="b" d="M169.09,10.02c.13,.36,.38,.66,.71,.85,.42,.23,.9,.33,1.38,.31,.45,0,.9-.07,1.33-.22,.43-.17,.85-.39,1.23-.65,.35-.22,.66-.48,.94-.78,.33-.44,.58-.93,.74-1.46,.21-.62,.32-1.26,.32-1.91,0-.31-.04-.63-.12-.93-.08-.27-.21-.52-.39-.73-.22-.23-.49-.4-.79-.49-.37-.13-.76-.19-1.15-.19-.49,0-.97,.1-1.42,.29-.44,.19-.85,.43-1.23,.73-.28,.21-.54,.45-.78,.71-.3,.43-.53,.9-.66,1.41-.19,.61-.3,1.25-.3,1.89,0,.4,.06,.8,.2,1.18h-.01Zm1.86-3.48c.12-.6,.37-1.17,.74-1.66,.26-.28,.62-.44,1-.44,.35-.01,.7,.13,.93,.4,.27,.37,.4,.83,.36,1.29,0,.75-.11,1.49-.31,2.21-.11,.43-.26,.85-.47,1.24-.13,.26-.32,.48-.56,.65-.21,.14-.47,.21-.72,.2-.38,.03-.74-.11-1-.39-.26-.38-.38-.83-.34-1.29,.01-.75,.12-1.5,.33-2.23l.04,.02Zm6.73-1.72h1l-1.06,5.47c-.16,1.01-.38,2.02-.67,3-.06,.19-.16,.36-.31,.49-.11,.09-.25,.14-.39,.14-.15,0-.29-.05-.4-.15-.15-.14-.26-.31-.33-.5h-.23c-.05,.26-.11,.51-.18,.73s-.17,.51-.3,.88c.15,.07,.31,.11,.48,.13,.25,0,.5-.07,.72-.2,.54-.3,1.01-.7,1.4-1.18,.47-.55,.85-1.17,1.11-1.85,.4-1.12,.73-2.26,1-3.42l.77-3.54h1.87c.06-.26,.13-.51,.23-.76l-.07-.12c-.24,.04-.47,.06-.71,.07-.53,.03-.86,.03-1,0h-.12c.11-.66,.25-1.31,.43-1.95,.05-.19,.11-.37,.2-.54,.06-.12,.16-.21,.27-.28,.11-.06,.23-.1,.35-.1,.19,.01,.38,.08,.53,.19,.24,.18,.44,.4,.6,.65h.22c.09-.63,.23-1.26,.41-1.87-.19-.08-.39-.12-.6-.12-.23,0-.47,.03-.69,.11-.35,.2-.69,.42-1,.67-.5,.36-.97,.74-1.42,1.16-.24,.22-.45,.47-.61,.75-.12,.28-.21,.56-.26,.86,0,.19-.07,.31-.1,.39-.26,.11-.52,.21-.79,.28-.32,.09-.56,.17-.72,.23l-.07,.37h.44ZM76.07,21.32h-1.33c.01,.57-.04,1.14-.17,1.7-.03,.16-.14,.29-.29,.35-.81,.16-1.64,.22-2.47,.18-.45,0-1.32-.04-2.61-.11v-2.08c0-2.62,.06-4.43,.17-5.43l1.59-.07h1.43c.78,0,1.55,.05,2.32,.17,.44,.05,.86,.17,1.26,.35,.06,.03,.11,.08,.14,.15,.06,.26,.09,.53,.09,.8,.06,.81,.09,1.34,.09,1.58h1.23c0-.67,.05-1.44,.14-2.33s.19-1.62,.29-2.2l-.14-.21c-.96-.1-1.93-.15-2.9-.15l-7.28,.14-5.34-.14v1.3c.6,.02,1.2,.08,1.79,.17,.15,.02,.3,.08,.43,.16,.07,.07,.12,.15,.14,.25,.12,.54,.17,1.1,.17,1.65,.09,2.67,.14,4.08,.14,4.24v6.23c0,.53-.03,1.41-.08,2.64-.05,1.23-.09,1.96-.12,2.19-.01,.28-.08,.55-.21,.79-.06,.08-.14,.14-.23,.17-.67,.14-1.35,.21-2.03,.21v1.25c1.86-.07,3.22-.11,4.08-.11l5.92,.08v-1.22c-.8-.03-1.59-.11-2.38-.25-.15-.04-.29-.13-.38-.26-.17-.54-.25-1.1-.24-1.67-.06-.96-.09-2.63-.09-5v-1.71h1.21c1.18-.03,2.36,.04,3.53,.2,.21,.02,.41,.12,.54,.29,.21,.74,.3,1.51,.26,2.28h1.33v-6.58Zm8.42,13.78c.67,0,1.83,.02,3.48,.06l3.56,.08c1.29,0,2.25-.03,2.86-.08,.3-.02,.6-.07,.9-.14,0-.19,.05-.77,.14-1.72l.38-3.06v-.5h-1.23c-.19,.97-.39,1.85-.59,2.62-.04,.2-.13,.4-.26,.56-.23,.12-.48,.18-.74,.2-1.32,.19-2.66,.28-4,.27-.51,0-1.46-.04-2.85-.11v-11.24c0-1.69,.02-3.1,.07-4.21-.02-.63,0-1.26,.08-1.88,.04-.13,.13-.23,.24-.3,.68-.2,1.38-.29,2.09-.27v-1.36c-1.65,.07-3.39,.11-5.22,.11-1.65,0-3.11-.04-4.39-.11v1.33c.78-.03,1.57,.07,2.32,.3,.11,.06,.19,.15,.23,.27,.15,1.08,.21,2.17,.19,3.26v5.91c0,2.17-.02,4.03-.06,5.58s-.09,2.45-.14,2.7c0,.06-.03,.12-.07,.17-.12,.12-.26,.23-.41,.3-.35,.22-.72,.42-1.1,.59v.78c2-.09,3.5-.14,4.51-.14v.03Zm13.07-4.2c.89,1.57,2.23,2.84,3.84,3.64,1.82,.87,3.83,1.29,5.85,1.24,1.91,.04,3.82-.3,5.6-1,1.19-.51,2.28-1.25,3.19-2.17,.92-.92,1.65-2.02,2.13-3.23,.67-1.68,1.01-3.47,1-5.28,0-1.04-.12-2.07-.37-3.08-.21-.9-.55-1.76-1-2.56-1.12-1.85-2.85-3.27-4.89-4-1.61-.53-3.3-.79-5-.77-1.74-.02-3.46,.25-5.11,.8-2.63,.94-4.73,2.95-5.79,5.53-.59,1.54-.87,3.18-.84,4.83-.08,2.09,.4,4.16,1.39,6v.05Zm4-11.39c.39-1.25,1.19-2.33,2.26-3.07,1.12-.7,2.43-1.05,3.76-1,1.07-.05,2.14,.18,3.11,.65,.8,.47,1.49,1.12,2,1.89,.61,.91,1.06,1.93,1.32,3,.32,1.27,.47,2.57,.46,3.88,.05,1.79-.24,3.57-.85,5.26-.42,1.24-1.24,2.31-2.32,3.04-1.03,.61-2.21,.93-3.41,.91-1.26,.02-2.5-.33-3.57-1-1.14-.81-2.01-1.95-2.48-3.27-.71-1.87-1.05-3.85-1-5.85-.02-1.53,.22-3.04,.7-4.49l.02,.05Zm19.74-3.89c.1,.06,.17,.15,.22,.26,.15,.75,.21,1.51,.18,2.27l.08,3.2v5.62l-.12,4.42c-.01,.6-.06,1.2-.15,1.79-.01,.15-.06,.29-.13,.42-.07,.08-.16,.13-.26,.15-.66,.12-1.33,.17-2,.17v1.33c1.33-.07,2.79-.11,4.37-.11,1.77,0,3.51,.04,5.23,.11v-1.34c-.59,0-1.18-.03-1.76-.09-.16-.02-.31-.08-.44-.16-.08-.06-.15-.13-.2-.22-.11-.36-.17-.73-.17-1.1,0-.28-.03-1.46-.09-3.54v-4.81c0-.96,.03-2.87,.09-5.72,0-1.27,.03-2.09,.09-2.46,.48-.08,.96-.12,1.44-.12,.76-.04,1.53,.04,2.27,.23,.67,.25,1.24,.7,1.65,1.29,.47,.68,.7,1.5,.67,2.32,.01,.87-.21,1.73-.64,2.49-.35,.66-.89,1.2-1.56,1.54-.87,.33-1.81,.45-2.74,.37l-.17,.5c.36,.28,.68,.62,.94,1,.67,.88,1.45,2.09,2.36,3.62l3.24,5.34c.16,.27,.28,.56,.36,.86,.8-.04,1.6-.06,2.41-.06,.67,0,1.79,.02,3.37,.06v-1.34c-.34,.02-.68-.02-1-.12-.19-.09-.36-.22-.5-.37-.17-.18-.64-.77-1.39-1.77l-1-1.5-2.35-3.5-.17-.29c-.06-.1-.24-.38-.57-.86s-.61-.93-.86-1.38c1.37-.44,2.58-1.27,3.5-2.38,.74-.95,1.14-2.12,1.14-3.33,.03-.94-.26-1.87-.83-2.62-.5-.68-1.2-1.18-2-1.42-1.17-.27-2.36-.38-3.56-.34-.82,0-1.85,.03-3.1,.09-.76,.05-1.67,.07-2.72,.07h-2.88l-2.42-.07v1.2c.75,0,1.5,.1,2.22,.3h-.05Zm24.15-1.46c-1.65,0-3.11-.04-4.38-.11v1.33c.64,0,1.28,.05,1.92,.13,.13,.02,.26,.08,.36,.17,.07,.09,.13,.19,.15,.3,.11,.8,.17,1.6,.18,2.41v10.21c0,1.03-.04,2.15-.12,3.36-.05,.83-.09,1.3-.12,1.42-.02,.09-.07,.18-.14,.24-.13,.09-.27,.15-.43,.17-.16,0-.77,.04-1.82,.11v1.33c1.45-.08,2.9-.11,4.35-.11,1.87,0,3.63,.04,5.27,.11v-1.32c-.6,0-1.21-.03-1.81-.1-.16-.03-.32-.09-.46-.18-.1-.08-.18-.2-.21-.33-.13-.66-.18-1.33-.15-2v-8.9c0-.19,.02-1.53,.06-4v-1.49c0-.34,.05-.68,.15-1,.03-.1,.09-.19,.17-.25,.12-.08,.26-.14,.41-.17,.61-.07,1.22-.11,1.83-.11v-1.36c-1.65,.07-3.39,.11-5.24,.11l.03,.03Zm11.71,21l4.49,.11c1.76,.04,3.52-.19,5.22-.67,1.46-.47,2.82-1.21,4-2.2,1.24-1.03,2.24-2.33,2.91-3.8,.73-1.62,1.09-3.38,1.06-5.16,.02-1.42-.22-2.84-.71-4.18-.29-.77-.71-1.49-1.25-2.12-.57-.67-1.24-1.25-2-1.7-.87-.49-1.82-.83-2.81-1-1.42-.25-2.85-.36-4.29-.33-.78,0-1.81,.02-3.1,.05-1.79,.06-3,.09-3.65,.09l-5.45-.23v1.22c1.09,.14,1.73,.23,1.9,.27,.14,.02,.27,.09,.38,.18,.06,.06,.1,.13,.12,.21,.15,.9,.21,1.82,.2,2.73,.05,2.57,.08,4.53,.08,5.86v2.53c0,3.04-.06,5.24-.17,6.59-.32,.24-.65,.47-1,.67l-.42,.24v.73l4.58-.11-.09,.02Zm1.31-7.71v-3.5c0-3.96,.05-6.65,.16-8.08,.85-.13,1.71-.19,2.57-.2,1.56-.07,3.13,.12,4.63,.54,.99,.34,1.86,.95,2.53,1.76,.68,.83,1.17,1.79,1.44,2.82,.29,1.09,.44,2.21,.44,3.34,0,1.19-.14,2.38-.44,3.53-.25,1-.67,1.95-1.23,2.82-.44,.69-1,1.3-1.66,1.79-.61,.42-1.29,.73-2,.92-1.17,.3-2.37,.44-3.57,.42-.9,0-1.8-.09-2.69-.24-.11-.96-.16-2.94-.16-5.94l-.02,.02Zm17.17,7.71l3.49,.11v-1.25c-.73,.03-1.46-.06-2.16-.27-.17-.11-.26-.31-.24-.51,.15-.89,.4-1.76,.75-2.59l.66-1.81h7.81l1.35,3.28c.18,.39,.3,.81,.35,1.24,.01,.18-.08,.34-.23,.43-.69,.16-1.41,.24-2.12,.23v1.25l5.31-.11,4.21,.11v-1.25l-.67-.07c-.3,0-.59-.05-.88-.11-.11-.04-.22-.1-.31-.18-.12-.11-.22-.24-.29-.39l-.61-1.39-.94-2.07-6.72-15.85h-2.16l-1.33,3.44-3.95,9.75c-.5,1.24-1,2.48-1.51,3.71-.33,.77-.66,1.54-1,2.31-.09,.17-.2,.32-.34,.45-.12,.1-.25,.17-.4,.21-.48,.08-.97,.14-1.46,.16v1.25l3.47-.11-.08,.03Zm6.36-15.94l3.24,7.8h-6.35l3.12-7.83v.03ZM63.08,1.83c.09,.04,.16,.11,.21,.19,.05,.13,.08,.27,.08,.41v5.66c.08,.58,.38,1.11,.84,1.48,.3,.23,.64,.41,1,.51,.58,.18,1.19,.26,1.8,.26,.49,0,.98-.05,1.45-.18,.39-.11,.76-.29,1.09-.53,.3-.21,.55-.49,.74-.8,.17-.31,.28-.65,.33-1,.05-.39,.08-.79,.08-1.18V3.32c0-.44,.04-.87,.11-1.3,.02-.07,.06-.14,.12-.19,.24-.09,.49-.12,.74-.1v-.51l-1.38,.04h-1.55v.48c.31-.01,.62,.03,.91,.13,.07,.03,.12,.08,.15,.15,.07,.33,.1,.66,.09,1v3.3c.04,.62-.03,1.25-.22,1.84-.16,.33-.42,.61-.75,.78-.44,.22-.92,.32-1.41,.3-.42,.01-.83-.06-1.22-.22-.3-.12-.55-.33-.74-.59-.18-.3-.29-.65-.3-1V3.82c-.04-.58-.02-1.16,.04-1.74,0-.09,.06-.17,.13-.22,.28-.11,.57-.15,.87-.12v-.52h-1.12l-.88,.04-2-.04v.52l.83,.09h-.04Zm11.29,8.27h3.05v-.54h-.13c-.2,0-.4-.02-.6-.05-.07,0-.15-.03-.21-.07-.04-.03-.07-.07-.09-.12-.05-.3-.08-.6-.08-.9V3.22c2.51,3.06,4.44,5.35,5.81,6.88l1.09,.16,.08-.05c-.06-.6-.09-2.31-.09-5.12v-1.67c-.02-.49,0-.98,.09-1.46,0-.04,.03-.08,.07-.1,.3-.09,.62-.13,.93-.11v-.53h-3v.53c.34-.03,.68,.02,1,.13,.07,.09,.11,.2,.11,.31,.05,.4,.08,1.73,.08,4v1.47c-.59-.61-1.33-1.44-2.22-2.51-1.1-1.29-2.16-2.6-3.2-3.93h-2.69v.53c.27,0,.54,.04,.81,.08,.07,.01,.14,.05,.2,.1,.05,.06,.08,.13,.09,.21,.02,.2,.02,.4,0,.6V7.96c-.03,.62-.06,1.01-.09,1.17,0,.09-.04,.17-.08,.24-.03,.04-.07,.06-.12,.08-.28,.04-.57,.06-.86,.07v.54l.05,.04ZM89,1.26h-1.83v.52c.27,0,.54,.02,.8,.05,.06,0,.11,.03,.15,.07,.03,.04,.05,.08,.06,.13,.06,.33,.09,.66,.11,.99V7.32c0,.43-.02,.9-.06,1.41v.6s-.03,.07-.06,.1c-.05,.04-.11,.06-.18,.07h-.76v.56h4.03v-.52c-.25,.02-.51,.02-.76,0-.08-.02-.15-.06-.21-.12-.04-.04-.08-.08-.09-.14-.06-.28-.08-.57-.06-.85V2.42c0-.13,.02-.27,.05-.4,.02-.05,.05-.09,.1-.12,.05-.04,.11-.06,.17-.07,.26-.02,.51-.02,.77,0v-.61h-2.2l-.03,.04Zm10.14,8.88c.26-.72,.75-1.95,1.48-3.7l.86-2,.45-1.05c.17-.51,.42-.99,.72-1.44,.23-.09,.47-.13,.72-.13v-.6h-2.98v.56h.93s.07,.05,.09,.08c.01,.05,.01,.11,0,.16,0,.05,0,.1,0,.15-.04,.17-.16,.51-.35,1-.15,.4-.3,.8-.45,1.2l-1.41,3.49-1.6-3.84v-.12l-.31-.61c-.19-.39-.33-.79-.42-1.21,0-.06,.01-.12,.05-.16,.05-.05,.12-.08,.19-.09,.25-.05,.51-.07,.77-.06v-.55h-4.13v.56c.27-.02,.54,.02,.79,.11,.16,.16,.29,.35,.37,.56,.16,.32,.59,1.32,1.3,3l.9,2.15,1,2.53h1.03Zm9.15-.11h3.08c.38,.02,.77,.02,1.15,0l.08-.08c.01-.69,.06-1.38,.14-2.07h-.45c-.05,.39-.13,.77-.24,1.15-.01,.04-.04,.08-.08,.11-.23,.08-.47,.13-.71,.13h-2.47v-3.39c.33-.02,.67-.02,1,0,.38,0,.76,.02,1.13,.07,.11,.01,.21,.07,.27,.16,.1,.29,.13,.6,.1,.91h.51v-2.78h-.51c0,.27-.03,.54-.09,.8-.01,.05-.05,.1-.09,.13-.13,.02-.27,.02-.4,0h-1.9v-1.32c0-.61,.03-1.22,.09-1.83h1.15c.41,0,.82,.02,1.23,.07,.17,0,.35,.04,.51,.1,.04,.03,.07,.08,.08,.13,.04,.31,.06,.61,.06,.92h.49l.06-.92,.12-.92v-.08l-.31-.09h-6.46v.54c.31,0,.62,.03,.92,.11,.04,.02,.08,.06,.1,.1,.07,.29,.1,.58,.09,.88V6.94c0,.33-.02,.86-.05,1.59,0,.4,0,.69-.06,.86-.19,.15-.4,.27-.62,.37v.34l2.08-.08ZM116.64,1.84s.07,.06,.09,.11c.07,.33,.1,.66,.08,1v3.67l-.05,1.85c0,.25-.02,.5-.06,.75,0,.06-.02,.12-.05,.18-.03,.03-.07,.05-.11,.06-.28,.05-.57,.07-.85,.07v.56h4.02v-.55c-.25,.01-.49,.01-.74,0-.06-.01-.13-.03-.18-.07-.03-.02-.06-.05-.08-.09-.05-.15-.07-.3-.07-.46V2.03c.2-.03,.4-.05,.6-.05,.34-.02,.67,.01,1,.1,.28,.11,.52,.29,.69,.54,.2,.29,.3,.65,.28,1,0,.35-.1,.7-.27,1-.14,.28-.37,.51-.65,.65-.37,.14-.76,.19-1.15,.16l-.07,.21c.15,.12,.28,.26,.39,.42,.27,.37,.61,.87,1,1.52l1.36,2.24c.07,.11,.11,.23,.15,.36h2.42v-.64c-.14,0-.27-.01-.4-.05-.08-.04-.15-.09-.21-.16-.07-.07-.27-.32-.58-.74l-.43-.63-1-1.47-.07-.12-.2-.35c-.13-.2-.26-.39-.36-.58,.57-.19,1.08-.53,1.46-1,.31-.4,.48-.89,.48-1.4,.01-.4-.11-.78-.35-1.1-.21-.28-.5-.49-.84-.59-.49-.11-.99-.16-1.49-.14h-4.65v.53c.31,0,.63,.05,.93,.13l-.04-.03Zm16.39,.63c.03-.27,.07-.54,.13-.81l-.05-.15c-.35-.17-.72-.28-1.1-.35-.43-.08-.86-.12-1.3-.12-.42,0-.85,.05-1.26,.14-.39,.09-.77,.25-1.1,.47-.34,.24-.61,.56-.79,.93-.2,.41-.3,.86-.3,1.31,0,.32,.06,.65,.17,.95,.11,.28,.28,.54,.5,.75,.25,.23,.55,.39,.88,.48,.24,.07,.74,.19,1.51,.35,.39,.07,.76,.2,1.12,.36,.2,.1,.36,.26,.47,.46,.11,.21,.16,.45,.15,.69,0,.3-.07,.59-.21,.85-.16,.27-.4,.47-.69,.59-.34,.15-.71,.22-1.08,.21-.44,0-.88-.1-1.28-.3-.33-.15-.62-.39-.83-.69-.05-.38-.07-.76-.07-1.14h-.51c.02,.74-.05,1.48-.2,2.2,.43,.21,.88,.38,1.34,.5,.46,.1,.92,.15,1.39,.15,.62,.02,1.24-.08,1.83-.3,.34-.14,.65-.33,.93-.57,.29-.24,.53-.53,.71-.85,.23-.44,.35-.93,.34-1.43,0-.28-.04-.56-.12-.83-.07-.22-.17-.43-.31-.62-.14-.17-.31-.32-.5-.43-.26-.14-.54-.25-.83-.32l-.85-.16-1-.19c-.26-.06-.5-.15-.73-.28-.16-.1-.29-.24-.38-.41-.1-.21-.15-.45-.14-.68,0-.39,.18-.75,.47-1,.37-.31,.85-.47,1.34-.44,.37,0,.75,.07,1.09,.22,.27,.1,.5,.27,.68,.49,.04,.33,.06,.67,.06,1h.53c0-.43,0-.78,.06-1l-.07-.03Zm5.64-1.23h-1.83v.54c.27,0,.53,.02,.8,.05,.06,0,.11,.03,.15,.07,.03,.04,.05,.08,.06,.13,.05,.33,.07,.67,.08,1V7.32c0,.43-.02,.9-.05,1.41v.6s-.03,.07-.06,.1c-.05,.04-.11,.06-.18,.07h-.76v.56h4.03v-.52c-.25,.02-.51,.02-.76,0-.07-.01-.13-.04-.19-.08-.05-.04-.08-.08-.09-.14-.06-.28-.08-.57-.06-.85V2.42c0-.14,.04-.27,.08-.4,.01-.04,.04-.07,.07-.1,.05-.03,.11-.06,.17-.07,.25-.02,.51-.02,.76,0v-.63h-2.2l-.02,.02Zm8.84,8.78c.57,0,1.26,.02,2.08,.05v-.49c-.31,.01-.61-.03-.91-.11-.09-.05-.16-.14-.19-.24-.07-.55-.09-1.1-.07-1.65V2.04h.91c.49,0,.9,.02,1.25,.05,.07-.02,.13-.02,.2,0,.05,.08,.08,.17,.08,.27,.05,.31,.07,.62,.08,.94h.52V1.91c.01-.23,.03-.45,.07-.68l-.06-.06h-8.02l-.06,.06c0,.21,.02,.41,.06,.6s.04,.68,0,1.47h.52c0-.34,.04-.67,.1-1,0-.08,.03-.16,.08-.22,.08-.03,.16-.05,.24-.05h2.12V7.57c.02,.55,0,1.1-.07,1.64-.03,.11-.09,.2-.19,.25-.3,.08-.6,.11-.91,.1v.52c.78-.03,1.47-.05,2.08-.05h.09Zm10.4-6.39c-.27-.54-.58-1.07-.92-1.58-.14-.23-.31-.44-.49-.63-.17-.16-.36-.3-.56-.41l-.7,.17-1.35,.27v.56c.19-.02,.37-.02,.56,0,.17,.12,.32,.25,.45,.41,.37,.43,.71,.89,1,1.38,.45,.71,.88,1.42,1.28,2.15,.12,.18,.2,.39,.24,.6v2.44c0,.13-.02,.26-.07,.38-.04,.05-.1,.09-.17,.1-.28,.04-.57,.06-.85,.06v.56h4.12v-.56c-.28,0-.56-.01-.84-.05-.07-.02-.14-.05-.19-.11-.06-.14-.09-.29-.1-.44-.02-.39-.02-.78,0-1.17v-1.09c-.01-.16-.01-.32,0-.48,.04-.17,.1-.33,.18-.48,.14-.27,.51-.87,1.1-1.8s1.16-1.74,1.69-2.42v-.28h-1c-.06,.12-.21,.39-.44,.79l-1.2,2.12-.8,1.29c-.1-.22-.4-.81-.89-1.76l-.05-.02Z"/><path class="b" d="M36.21,29.4v-8.67h7.99v-5.72h-7.99V6.91h8.77v3.14h5.79V1.24H27.59V6.91h2.18V29.4h-2.17v5.72h10.7v-5.72h-2.09Zm-11.63-7.09V6.91h2.14V1.24h-10.71V6.91h2.09v13.49c0,5.66-.65,8.37-4.71,8.37s-4.72-2.75-4.72-8.37V6.91h2.07V1.24H0V6.91H2.13v15.4c0,3.37,0,6.12,1.59,8.6,1.77,2.8,5,4.59,9.66,4.59,8.26,0,11.2-4.31,11.2-13.19Z"/></g></svg>